<?xml version="1.0" encoding="UTF-8" standalone="no"?>
<!DOCTYPE svg PUBLIC "-//W3C//DTD SVG 1.1//EN"
 "http://www.w3.org/Graphics/SVG/1.1/DTD/svg11.dtd">
<!-- Generated by graphviz version 2.43.0 (0)
 -->
<!-- Title: dependency&#45;cruiser output Pages: 1 -->
<svg width="434pt" height="396pt"
 viewBox="0.00 0.00 433.60 396.00" xmlns="http://www.w3.org/2000/svg" xmlns:xlink="http://www.w3.org/1999/xlink">
<g id="graph0" class="graph" transform="scale(1 1) rotate(0) translate(4 392)">
<title>dependency&#45;cruiser output</title>
<polygon fill="white" stroke="transparent" points="-4,4 -4,-392 429.6,-392 429.6,4 -4,4"/>
<g id="clust1" class="cluster">
<title>cluster_src</title>
<path fill="#ffffff" stroke="black" stroke-width="2" d="M20,-8C20,-8 405.6,-8 405.6,-8 411.6,-8 417.6,-14 417.6,-20 417.6,-20 417.6,-368 417.6,-368 417.6,-374 411.6,-380 405.6,-380 405.6,-380 20,-380 20,-380 14,-380 8,-374 8,-368 8,-368 8,-20 8,-20 8,-14 14,-8 20,-8"/>
<text text-anchor="middle" x="212.8" y="-368.8" font-family="Helvetica,sans-Serif" font-weight="bold" font-size="9.00">src</text>
</g>
<g id="clust2" class="cluster">
<title>cluster_src/app</title>
<path fill="#ffffff" stroke="black" stroke-width="2" d="M225.1,-180C225.1,-180 273.1,-180 273.1,-180 279.1,-180 285.1,-186 285.1,-192 285.1,-192 285.1,-236 285.1,-236 285.1,-242 279.1,-248 273.1,-248 273.1,-248 225.1,-248 225.1,-248 219.1,-248 213.1,-242 213.1,-236 213.1,-236 213.1,-192 213.1,-192 213.1,-186 219.1,-180 225.1,-180"/>
<text text-anchor="middle" x="249.1" y="-236.8" font-family="Helvetica,sans-Serif" font-weight="bold" font-size="9.00">app</text>
</g>
<g id="clust3" class="cluster">
<title>cluster_src/domain</title>
<path fill="#ffffff" stroke="black" stroke-width="2" d="M209.6,-16C209.6,-16 397.6,-16 397.6,-16 403.6,-16 409.6,-22 409.6,-28 409.6,-28 409.6,-118 409.6,-118 409.6,-124 403.6,-130 397.6,-130 397.6,-130 209.6,-130 209.6,-130 203.6,-130 197.6,-124 197.6,-118 197.6,-118 197.6,-28 197.6,-28 197.6,-22 203.6,-16 209.6,-16"/>
<text text-anchor="middle" x="303.6" y="-118.8" font-family="Helvetica,sans-Serif" font-weight="bold" font-size="9.00">domain</text>
</g>
<g id="clust4" class="cluster">
<title>cluster_src/domain/Services</title>
<path fill="#ffffff" stroke="black" stroke-width="2" d="M217.6,-36C217.6,-36 280.6,-36 280.6,-36 286.6,-36 292.6,-42 292.6,-48 292.6,-48 292.6,-92 292.6,-92 292.6,-98 286.6,-104 280.6,-104 280.6,-104 217.6,-104 217.6,-104 211.6,-104 205.6,-98 205.6,-92 205.6,-92 205.6,-48 205.6,-48 205.6,-42 211.6,-36 217.6,-36"/>
<text text-anchor="middle" x="249.1" y="-92.8" font-family="Helvetica,sans-Serif" font-weight="bold" font-size="9.00">Services</text>
</g>
<g id="clust5" class="cluster">
<title>cluster_src/impl</title>
<path fill="#ffffff" stroke="black" stroke-width="2" d="M208.6,-256C208.6,-256 385.1,-256 385.1,-256 391.1,-256 397.1,-262 397.1,-268 397.1,-268 397.1,-342 397.1,-342 397.1,-348 391.1,-354 385.1,-354 385.1,-354 208.6,-354 208.6,-354 202.6,-354 196.6,-348 196.6,-342 196.6,-342 196.6,-268 196.6,-268 196.6,-262 202.6,-256 208.6,-256"/>
<text text-anchor="middle" x="296.85" y="-342.8" font-family="Helvetica,sans-Serif" font-weight="bold" font-size="9.00">impl</text>
</g>
<g id="clust6" class="cluster">
<title>cluster_src/view</title>
<path fill="#ffffff" stroke="black" stroke-width="2" d="M28,-154C28,-154 176.6,-154 176.6,-154 182.6,-154 188.6,-160 188.6,-166 188.6,-166 188.6,-194 188.6,-194 188.6,-200 182.6,-206 176.6,-206 176.6,-206 28,-206 28,-206 22,-206 16,-200 16,-194 16,-194 16,-166 16,-166 16,-160 22,-154 28,-154"/>
<text text-anchor="middle" x="102.3" y="-194.8" font-family="Helvetica,sans-Serif" font-weight="bold" font-size="9.00">view</text>
</g>
<!-- src -->
<!-- src/app -->
<!-- src/domain/ServiceInterfaces -->
<g id="node3" class="node">
<title>src/domain/ServiceInterfaces</title>
<g id="a_node3"><a xlink:href="src/domain/ServiceInterfaces" xlink:title="ServiceInterfaces">
<polygon fill="#ffffcc" stroke="black" points="401.6,-104 308.6,-104 306.6,-102 306.6,-86 399.6,-86 401.6,-88 401.6,-104"/>
<polyline fill="none" stroke="black" points="399.6,-102 306.6,-102 "/>
<polyline fill="none" stroke="black" points="399.6,-102 399.6,-86 "/>
<polyline fill="none" stroke="black" points="399.6,-102 401.6,-104 "/>
<text text-anchor="middle" x="354.1" y="-92.8" font-family="Helvetica,sans-Serif" font-size="9.00">ServiceInterfaces</text>
</a>
</g>
</g>
<!-- src/app&#45;&gt;src/domain/ServiceInterfaces -->
<g id="edge1" class="edge">
<title>src/app&#45;&gt;src/domain/ServiceInterfaces</title>
<path fill="none" stroke="#000000" stroke-width="2" stroke-opacity="0.200000" d="M251.32,-220.14C256.85,-220.7 279.82,-222.29 293.6,-212 327.95,-186.37 343.94,-135.25 350.01,-109.93"/>
<polygon fill="#000000" fill-opacity="0.200000" stroke="#000000" stroke-width="2" stroke-opacity="0.200000" points="352.06,-110.4 351.34,-104.08 347.96,-109.46 352.06,-110.4"/>
</g>
<!-- src/app/Contexts -->
<g id="node4" class="node">
<title>src/app/Contexts</title>
<g id="a_node4"><a xlink:href="src/app/Contexts" xlink:title="Contexts">
<polygon fill="#ffffcc" stroke="black" points="277.1,-206 223.1,-206 221.1,-204 221.1,-188 275.1,-188 277.1,-190 277.1,-206"/>
<polyline fill="none" stroke="black" points="275.1,-204 221.1,-204 "/>
<polyline fill="none" stroke="black" points="275.1,-204 275.1,-188 "/>
<polyline fill="none" stroke="black" points="275.1,-204 277.1,-206 "/>
<text text-anchor="middle" x="249.1" y="-194.8" font-family="Helvetica,sans-Serif" font-size="9.00">Contexts</text>
</a>
</g>
</g>
<!-- src/assets -->
<g id="node5" class="node">
<title>src/assets</title>
<g id="a_node5"><a xlink:href="src/assets" xlink:title="assets">
<polygon fill="#ffffcc" stroke="black" points="276.1,-158 224.1,-158 222.1,-156 222.1,-140 274.1,-140 276.1,-142 276.1,-158"/>
<polyline fill="none" stroke="black" points="274.1,-156 222.1,-156 "/>
<polyline fill="none" stroke="black" points="274.1,-156 274.1,-140 "/>
<polyline fill="none" stroke="black" points="274.1,-156 276.1,-158 "/>
<text text-anchor="middle" x="249.1" y="-146.8" font-family="Helvetica,sans-Serif" font-size="9.00">assets</text>
</a>
</g>
</g>
<!-- src/domain -->
<!-- src/domain/Services -->
<!-- src/domain/Services&#45;&gt;src/domain/ServiceInterfaces -->
<g id="edge2" class="edge">
<title>src/domain/Services&#45;&gt;src/domain/ServiceInterfaces</title>
<path fill="none" stroke="#000000" stroke-width="2" stroke-opacity="0.200000" d="M251.18,-76.12C256.09,-76.66 276.79,-79.01 293.6,-82 298.21,-82.82 303.01,-83.75 307.79,-84.72"/>
<polygon fill="#000000" fill-opacity="0.200000" stroke="#000000" stroke-width="2" stroke-opacity="0.200000" points="307.52,-86.8 313.82,-85.96 308.37,-82.69 307.52,-86.8"/>
</g>
<!-- src/domain/Services/Interpreters -->
<g id="node8" class="node">
<title>src/domain/Services/Interpreters</title>
<g id="a_node8"><a xlink:href="src/domain/Services/Interpreters" xlink:title="Interpreters">
<polygon fill="#ffffcc" stroke="black" points="284.6,-62 215.6,-62 213.6,-60 213.6,-44 282.6,-44 284.6,-46 284.6,-62"/>
<polyline fill="none" stroke="black" points="282.6,-60 213.6,-60 "/>
<polyline fill="none" stroke="black" points="282.6,-60 282.6,-44 "/>
<polyline fill="none" stroke="black" points="282.6,-60 284.6,-62 "/>
<text text-anchor="middle" x="249.1" y="-50.8" font-family="Helvetica,sans-Serif" font-size="9.00">Interpreters</text>
</a>
</g>
</g>
<!-- src/domain/Services/Interpreters&#45;&gt;src/domain/ServiceInterfaces -->
<g id="edge3" class="edge">
<title>src/domain/Services/Interpreters&#45;&gt;src/domain/ServiceInterfaces</title>
<path fill="none" stroke="#000000" stroke-width="2" stroke-opacity="0.200000" d="M277.86,-62.14C283.12,-63.99 288.55,-65.99 293.6,-68 305.25,-72.64 317.93,-78.31 328.58,-83.25"/>
<polygon fill="#000000" fill-opacity="0.200000" stroke="#000000" stroke-width="2" stroke-opacity="0.200000" points="327.95,-85.27 334.27,-85.91 329.72,-81.46 327.95,-85.27"/>
</g>
<!-- src/impl -->
<!-- src/impl/LocalStorages -->
<g id="node10" class="node">
<title>src/impl/LocalStorages</title>
<g id="a_node10"><a xlink:href="src/impl/LocalStorages" xlink:title="LocalStorages">
<polygon fill="#ccffcc" stroke="black" points="288.6,-312 211.6,-312 209.6,-310 209.6,-294 286.6,-294 288.6,-296 288.6,-312"/>
<polyline fill="none" stroke="black" points="286.6,-310 209.6,-310 "/>
<polyline fill="none" stroke="black" points="286.6,-310 286.6,-294 "/>
<polyline fill="none" stroke="black" points="286.6,-310 288.6,-312 "/>
<text text-anchor="middle" x="249.1" y="-300.8" font-family="Helvetica,sans-Serif" font-size="9.00">LocalStorages</text>
</a>
</g>
</g>
<!-- src/impl/RemoteServices -->
<g id="node11" class="node">
<title>src/impl/RemoteServices</title>
<g id="a_node11"><a xlink:href="src/impl/RemoteServices" xlink:title="RemoteServices">
<polygon fill="#ffffcc" stroke="black" points="293.6,-282 206.6,-282 204.6,-280 204.6,-264 291.6,-264 293.6,-266 293.6,-282"/>
<polyline fill="none" stroke="black" points="291.6,-280 204.6,-280 "/>
<polyline fill="none" stroke="black" points="291.6,-280 291.6,-264 "/>
<polyline fill="none" stroke="black" points="291.6,-280 293.6,-282 "/>
<text text-anchor="middle" x="249.1" y="-270.8" font-family="Helvetica,sans-Serif" font-size="9.00">RemoteServices</text>
</a>
</g>
</g>
<!-- src/impl/RemoteServices&#45;&gt;src/domain/ServiceInterfaces -->
<g id="edge4" class="edge">
<title>src/impl/RemoteServices&#45;&gt;src/domain/ServiceInterfaces</title>
<path fill="none" stroke="#000000" stroke-width="2" stroke-opacity="0.200000" d="M275.73,-263.93C282.22,-260.66 288.73,-256.41 293.6,-251 331.3,-209.16 346.05,-140.96 350.97,-110.52"/>
<polygon fill="#000000" fill-opacity="0.200000" stroke="#000000" stroke-width="2" stroke-opacity="0.200000" points="353.09,-110.54 351.92,-104.29 348.94,-109.91 353.09,-110.54"/>
</g>
<!-- src/impl/remote&#45;apis -->
<g id="node12" class="node">
<title>src/impl/remote&#45;apis</title>
<g id="a_node12"><a xlink:href="src/impl/remote-apis" xlink:title="remote&#45;apis">
<polygon fill="#ccffcc" stroke="black" points="389.1,-282 321.1,-282 319.1,-280 319.1,-264 387.1,-264 389.1,-266 389.1,-282"/>
<polyline fill="none" stroke="black" points="387.1,-280 319.1,-280 "/>
<polyline fill="none" stroke="black" points="387.1,-280 387.1,-264 "/>
<polyline fill="none" stroke="black" points="387.1,-280 389.1,-282 "/>
<text text-anchor="middle" x="354.1" y="-270.8" font-family="Helvetica,sans-Serif" font-size="9.00">remote&#45;apis</text>
</a>
</g>
</g>
<!-- src/impl/RemoteServices&#45;&gt;src/impl/remote&#45;apis -->
<g id="edge5" class="edge">
<title>src/impl/RemoteServices&#45;&gt;src/impl/remote&#45;apis</title>
<path fill="none" stroke="#000000" stroke-width="2" stroke-opacity="0.200000" d="M293.78,-273C300.11,-273 306.61,-273 312.87,-273"/>
<polygon fill="#000000" fill-opacity="0.200000" stroke="#000000" stroke-width="2" stroke-opacity="0.200000" points="313.04,-275.1 319.04,-273 313.04,-270.9 313.04,-275.1"/>
</g>
<!-- src/view -->
<!-- src/view&#45;&gt;src/app -->
<g id="edge7" class="edge">
<title>src/view&#45;&gt;src/app</title>
<path fill="none" stroke="#000000" stroke-width="2" stroke-opacity="0.200000" d="M27.22,-172.56C28.45,-176.83 32.48,-188.71 40.6,-194 107.86,-237.83 213.74,-225.34 241.34,-221.12"/>
<polygon fill="#000000" fill-opacity="0.200000" stroke="#000000" stroke-width="2" stroke-opacity="0.200000" points="241.68,-223.2 247.26,-220.15 241,-219.05 241.68,-223.2"/>
</g>
<!-- src/view&#45;&gt;src/domain/ServiceInterfaces -->
<g id="edge9" class="edge">
<title>src/view&#45;&gt;src/domain/ServiceInterfaces</title>
<path fill="none" stroke="#000000" stroke-width="2" stroke-opacity="0.200000" d="M27.02,-169.64C28.38,-161.18 35.86,-115.84 40.6,-112 46.06,-107.58 286.61,-107.77 293.6,-107 298.17,-106.5 302.9,-105.82 307.62,-105.04"/>
<polygon fill="#000000" fill-opacity="0.200000" stroke="#000000" stroke-width="2" stroke-opacity="0.200000" points="308.02,-107.1 313.57,-104 307.3,-102.96 308.02,-107.1"/>
</g>
<!-- src/view&#45;&gt;src/app/Contexts -->
<g id="edge6" class="edge">
<title>src/view&#45;&gt;src/app/Contexts</title>
<path fill="none" stroke="#000000" stroke-width="2" stroke-opacity="0.200000" d="M27.39,-172.03C29.04,-174.82 34.07,-182.6 40.6,-186 67.25,-199.88 77.64,-192.78 107.6,-195 144.13,-197.7 186.14,-197.92 214.63,-197.64"/>
<polygon fill="#000000" fill-opacity="0.200000" stroke="#000000" stroke-width="2" stroke-opacity="0.200000" points="214.89,-199.74 220.86,-197.57 214.84,-195.54 214.89,-199.74"/>
</g>
<!-- src/view&#45;&gt;src/assets -->
<g id="edge8" class="edge">
<title>src/view&#45;&gt;src/assets</title>
<path fill="none" stroke="#000000" stroke-width="2" stroke-opacity="0.200000" d="M27.39,-169.99C29.07,-167.23 34.15,-159.54 40.6,-156 98.45,-124.24 122.66,-141.23 188.6,-144 197.52,-144.37 207.17,-145.06 216.06,-145.81"/>
<polygon fill="#000000" fill-opacity="0.200000" stroke="#000000" stroke-width="2" stroke-opacity="0.200000" points="215.9,-147.91 222.06,-146.34 216.27,-143.72 215.9,-147.91"/>
</g>
<!-- src/view/pages -->
<g id="node14" class="node">
<title>src/view/pages</title>
<g id="a_node14"><a xlink:href="src/view/pages" xlink:title="pages">
<polygon fill="#ffffcc" stroke="black" points="94.6,-180 42.6,-180 40.6,-178 40.6,-162 92.6,-162 94.6,-164 94.6,-180"/>
<polyline fill="none" stroke="black" points="92.6,-178 40.6,-178 "/>
<polyline fill="none" stroke="black" points="92.6,-178 92.6,-162 "/>
<polyline fill="none" stroke="black" points="92.6,-178 94.6,-180 "/>
<text text-anchor="middle" x="67.6" y="-168.8" font-family="Helvetica,sans-Serif" font-size="9.00">pages</text>
</a>
</g>
</g>
<!-- src/view&#45;&gt;src/view/pages -->
<g id="edge10" class="edge">
<title>src/view&#45;&gt;src/view/pages</title>
<path fill="none" stroke="#000000" stroke-width="2" stroke-opacity="0.200000" d="M27.49,-169.7C28.63,-168.7 31.08,-167.93 34.23,-167.4"/>
<polygon fill="#000000" fill-opacity="0.200000" stroke="#000000" stroke-width="2" stroke-opacity="0.200000" points="34.8,-169.45 40.52,-166.7 34.33,-165.28 34.8,-169.45"/>
</g>
<!-- src/view/pages&#45;&gt;src/app -->
<g id="edge15" class="edge">
<title>src/view/pages&#45;&gt;src/app</title>
<path fill="none" stroke="#000000" stroke-width="2" stroke-opacity="0.200000" d="M80.64,-180C88.06,-185.13 97.96,-191.26 107.6,-195 156.32,-213.91 220.14,-218.63 241.1,-219.71"/>
<polygon fill="#000000" fill-opacity="0.200000" stroke="#000000" stroke-width="2" stroke-opacity="0.200000" points="241.09,-221.81 247.17,-219.97 241.27,-217.61 241.09,-221.81"/>
</g>
<!-- src/view/pages&#45;&gt;src/domain/ServiceInterfaces -->
<g id="edge17" class="edge">
<title>src/view/pages&#45;&gt;src/domain/ServiceInterfaces</title>
<path fill="none" stroke="#000000" stroke-width="2" stroke-opacity="0.200000" d="M77.26,-161.75C84.61,-154.54 95.8,-144.95 107.6,-140 184.41,-107.77 212.66,-136.69 293.6,-117 304.6,-114.32 316.37,-110.25 326.5,-106.33"/>
<polygon fill="#000000" fill-opacity="0.200000" stroke="#000000" stroke-width="2" stroke-opacity="0.200000" points="327.46,-108.21 332.27,-104.05 325.91,-104.3 327.46,-108.21"/>
</g>
<!-- src/view/pages&#45;&gt;src/app/Contexts -->
<g id="edge14" class="edge">
<title>src/view/pages&#45;&gt;src/app/Contexts</title>
<path fill="none" stroke="#000000" stroke-width="2" stroke-opacity="0.200000" d="M88.9,-180.08C94.82,-182.38 101.37,-184.59 107.6,-186 143.65,-194.16 186.08,-196.52 214.81,-197.08"/>
<polygon fill="#000000" fill-opacity="0.200000" stroke="#000000" stroke-width="2" stroke-opacity="0.200000" points="215.05,-199.19 221.08,-197.18 215.12,-194.99 215.05,-199.19"/>
</g>
<!-- src/view/pages&#45;&gt;src/assets -->
<g id="edge16" class="edge">
<title>src/view/pages&#45;&gt;src/assets</title>
<path fill="none" stroke="#000000" stroke-width="2" stroke-opacity="0.200000" d="M88.47,-161.96C94.5,-159.61 101.21,-157.35 107.6,-156 144.03,-148.29 186.9,-147.28 215.62,-147.73"/>
<polygon fill="#000000" fill-opacity="0.200000" stroke="#000000" stroke-width="2" stroke-opacity="0.200000" points="215.85,-149.83 221.89,-147.85 215.93,-145.63 215.85,-149.83"/>
</g>
<!-- src/view/pages&#45;&gt;src/view -->
<g id="edge19" class="edge">
<title>src/view/pages&#45;&gt;src/view</title>
<path fill="none" stroke="#000000" stroke-width="2" stroke-opacity="0.200000" d="M40.52,-175.3C37.89,-175.13 35.41,-174.84 33.31,-174.43"/>
<polygon fill="#000000" fill-opacity="0.200000" stroke="#000000" stroke-width="2" stroke-opacity="0.200000" points="33.85,-172.39 27.49,-172.3 32.4,-176.34 33.85,-172.39"/>
</g>
<!-- src/view/components -->
<g id="node15" class="node">
<title>src/view/components</title>
<g id="a_node15"><a xlink:href="src/view/components" xlink:title="components">
<polygon fill="#ffffcc" stroke="black" points="180.6,-180 109.6,-180 107.6,-178 107.6,-162 178.6,-162 180.6,-164 180.6,-180"/>
<polyline fill="none" stroke="black" points="178.6,-178 107.6,-178 "/>
<polyline fill="none" stroke="black" points="178.6,-178 178.6,-162 "/>
<polyline fill="none" stroke="black" points="178.6,-178 180.6,-180 "/>
<text text-anchor="middle" x="144.1" y="-168.8" font-family="Helvetica,sans-Serif" font-size="9.00">components</text>
</a>
</g>
</g>
<!-- src/view/pages&#45;&gt;src/view/components -->
<g id="edge18" class="edge">
<title>src/view/pages&#45;&gt;src/view/components</title>
<path fill="none" stroke="#000000" stroke-width="2" stroke-opacity="0.200000" d="M94.66,-171C96.84,-171 99.08,-171 101.35,-171"/>
<polygon fill="#000000" fill-opacity="0.200000" stroke="#000000" stroke-width="2" stroke-opacity="0.200000" points="101.37,-173.1 107.37,-171 101.37,-168.9 101.37,-173.1"/>
</g>
<!-- src/view/components&#45;&gt;src/domain/ServiceInterfaces -->
<g id="edge13" class="edge">
<title>src/view/components&#45;&gt;src/domain/ServiceInterfaces</title>
<path fill="none" stroke="#000000" stroke-width="2" stroke-opacity="0.200000" d="M180.8,-173.09C218.31,-174.71 274.47,-175.32 293.6,-166 318.28,-153.97 336.5,-126.42 345.9,-109.39"/>
<polygon fill="#000000" fill-opacity="0.200000" stroke="#000000" stroke-width="2" stroke-opacity="0.200000" points="347.78,-110.34 348.75,-104.05 344.07,-108.36 347.78,-110.34"/>
</g>
<!-- src/view/components&#45;&gt;src/app/Contexts -->
<g id="edge12" class="edge">
<title>src/view/components&#45;&gt;src/app/Contexts</title>
<path fill="none" stroke="#000000" stroke-width="2" stroke-opacity="0.200000" d="M180.84,-180.02C191.91,-182.82 204.07,-185.89 214.97,-188.64"/>
<polygon fill="#000000" fill-opacity="0.200000" stroke="#000000" stroke-width="2" stroke-opacity="0.200000" points="214.54,-190.7 220.87,-190.13 215.57,-186.62 214.54,-190.7"/>
</g>
<!-- src/view/components&#45;&gt;src/assets -->
<g id="edge11" class="edge">
<title>src/view/components&#45;&gt;src/assets</title>
<path fill="none" stroke="#000000" stroke-width="2" stroke-opacity="0.200000" d="M180.84,-163.37C192.21,-160.94 204.72,-158.27 215.83,-155.89"/>
<polygon fill="#000000" fill-opacity="0.200000" stroke="#000000" stroke-width="2" stroke-opacity="0.200000" points="216.42,-157.91 221.85,-154.61 215.54,-153.81 216.42,-157.91"/>
</g>
</g>
</svg>
