<?xml version="1.0" encoding="UTF-8" standalone="no"?>
<!DOCTYPE svg PUBLIC "-//W3C//DTD SVG 1.1//EN"
 "http://www.w3.org/Graphics/SVG/1.1/DTD/svg11.dtd">
<!-- Generated by graphviz version 2.43.0 (0)
 -->
<!-- Title: dependency&#45;cruiser output Pages: 1 -->
<svg width="361pt" height="582pt"
 viewBox="0.00 0.00 360.60 582.00" xmlns="http://www.w3.org/2000/svg" xmlns:xlink="http://www.w3.org/1999/xlink">
<g id="graph0" class="graph" transform="scale(1 1) rotate(0) translate(4 578)">
<title>dependency&#45;cruiser output</title>
<polygon fill="white" stroke="transparent" points="-4,4 -4,-578 356.6,-578 356.6,4 -4,4"/>
<g id="clust1" class="cluster">
<title>cluster_src</title>
<path fill="#ffffff" stroke="black" stroke-width="2" d="M20,-8C20,-8 332.6,-8 332.6,-8 338.6,-8 344.6,-14 344.6,-20 344.6,-20 344.6,-554 344.6,-554 344.6,-560 338.6,-566 332.6,-566 332.6,-566 20,-566 20,-566 14,-566 8,-560 8,-554 8,-554 8,-20 8,-20 8,-14 14,-8 20,-8"/>
<text text-anchor="middle" x="176.3" y="-554.8" font-family="Helvetica,sans-Serif" font-weight="bold" font-size="9.00">src</text>
</g>
<g id="clust2" class="cluster">
<title>cluster_src/app</title>
<path fill="#ffffff" stroke="black" stroke-width="2" d="M47.6,-366C47.6,-366 203.1,-366 203.1,-366 209.1,-366 215.1,-372 215.1,-378 215.1,-378 215.1,-422 215.1,-422 215.1,-428 209.1,-434 203.1,-434 203.1,-434 47.6,-434 47.6,-434 41.6,-434 35.6,-428 35.6,-422 35.6,-422 35.6,-378 35.6,-378 35.6,-372 41.6,-366 47.6,-366"/>
<text text-anchor="middle" x="125.35" y="-422.8" font-family="Helvetica,sans-Serif" font-weight="bold" font-size="9.00">app</text>
</g>
<g id="clust3" class="cluster">
<title>cluster_src/domain</title>
<path fill="#ffffff" stroke="black" stroke-width="2" d="M136.6,-244C136.6,-244 324.6,-244 324.6,-244 330.6,-244 336.6,-250 336.6,-256 336.6,-256 336.6,-346 336.6,-346 336.6,-352 330.6,-358 324.6,-358 324.6,-358 136.6,-358 136.6,-358 130.6,-358 124.6,-352 124.6,-346 124.6,-346 124.6,-256 124.6,-256 124.6,-250 130.6,-244 136.6,-244"/>
<text text-anchor="middle" x="230.6" y="-346.8" font-family="Helvetica,sans-Serif" font-weight="bold" font-size="9.00">domain</text>
</g>
<g id="clust4" class="cluster">
<title>cluster_src/domain/Services</title>
<path fill="#ffffff" stroke="black" stroke-width="2" d="M144.6,-264C144.6,-264 207.6,-264 207.6,-264 213.6,-264 219.6,-270 219.6,-276 219.6,-276 219.6,-320 219.6,-320 219.6,-326 213.6,-332 207.6,-332 207.6,-332 144.6,-332 144.6,-332 138.6,-332 132.6,-326 132.6,-320 132.6,-320 132.6,-276 132.6,-276 132.6,-270 138.6,-264 144.6,-264"/>
<text text-anchor="middle" x="176.1" y="-320.8" font-family="Helvetica,sans-Serif" font-weight="bold" font-size="9.00">Services</text>
</g>
<g id="clust5" class="cluster">
<title>cluster_src/impl</title>
<path fill="#ffffff" stroke="black" stroke-width="2" d="M135.6,-442C135.6,-442 312.1,-442 312.1,-442 318.1,-442 324.1,-448 324.1,-454 324.1,-454 324.1,-528 324.1,-528 324.1,-534 318.1,-540 312.1,-540 312.1,-540 135.6,-540 135.6,-540 129.6,-540 123.6,-534 123.6,-528 123.6,-528 123.6,-454 123.6,-454 123.6,-448 129.6,-442 135.6,-442"/>
<text text-anchor="middle" x="223.85" y="-528.8" font-family="Helvetica,sans-Serif" font-weight="bold" font-size="9.00">impl</text>
</g>
<g id="clust6" class="cluster">
<title>cluster_src/pluginbase</title>
<path fill="#ffffff" stroke="black" stroke-width="2" d="M144.1,-116C144.1,-116 312.1,-116 312.1,-116 318.1,-116 324.1,-122 324.1,-128 324.1,-128 324.1,-218 324.1,-218 324.1,-224 318.1,-230 312.1,-230 312.1,-230 144.1,-230 144.1,-230 138.1,-230 132.1,-224 132.1,-218 132.1,-218 132.1,-128 132.1,-128 132.1,-122 138.1,-116 144.1,-116"/>
<text text-anchor="middle" x="228.1" y="-218.8" font-family="Helvetica,sans-Serif" font-weight="bold" font-size="9.00">pluginbase</text>
</g>
<g id="clust7" class="cluster">
<title>cluster_src/pluginbase/base</title>
<path fill="#ffffff" stroke="black" stroke-width="2" d="M152.1,-136C152.1,-136 304.1,-136 304.1,-136 310.1,-136 316.1,-142 316.1,-148 316.1,-148 316.1,-192 316.1,-192 316.1,-198 310.1,-204 304.1,-204 304.1,-204 152.1,-204 152.1,-204 146.1,-204 140.1,-198 140.1,-192 140.1,-192 140.1,-148 140.1,-148 140.1,-142 146.1,-136 152.1,-136"/>
<text text-anchor="middle" x="228.1" y="-192.8" font-family="Helvetica,sans-Serif" font-weight="bold" font-size="9.00">base</text>
</g>
<g id="clust8" class="cluster">
<title>cluster_src/view</title>
<path fill="#ffffff" stroke="black" stroke-width="2" d="M28,-28C28,-28 304.1,-28 304.1,-28 310.1,-28 316.1,-34 316.1,-40 316.1,-40 316.1,-96 316.1,-96 316.1,-102 310.1,-108 304.1,-108 304.1,-108 28,-108 28,-108 22,-108 16,-102 16,-96 16,-96 16,-40 16,-40 16,-34 22,-28 28,-28"/>
<text text-anchor="middle" x="166.05" y="-96.8" font-family="Helvetica,sans-Serif" font-weight="bold" font-size="9.00">view</text>
</g>
<!-- src -->
<!-- src/app -->
<!-- src/app/AppServices -->
<g id="node3" class="node">
<title>src/app/AppServices</title>
<g id="a_node3"><a xlink:href="src/app/AppServices" xlink:title="AppServices">
<polygon fill="#ffffcc" stroke="black" points="115.6,-392 45.6,-392 43.6,-390 43.6,-374 113.6,-374 115.6,-376 115.6,-392"/>
<polyline fill="none" stroke="black" points="113.6,-390 43.6,-390 "/>
<polyline fill="none" stroke="black" points="113.6,-390 113.6,-374 "/>
<polyline fill="none" stroke="black" points="113.6,-390 115.6,-392 "/>
<text text-anchor="middle" x="79.6" y="-380.8" font-family="Helvetica,sans-Serif" font-size="9.00">AppServices</text>
</a>
</g>
</g>
<!-- src/domain/ServiceInterfaces -->
<g id="node4" class="node">
<title>src/domain/ServiceInterfaces</title>
<g id="a_node4"><a xlink:href="src/domain/ServiceInterfaces" xlink:title="ServiceInterfaces">
<polygon fill="#ffffcc" stroke="black" points="328.6,-332 235.6,-332 233.6,-330 233.6,-314 326.6,-314 328.6,-316 328.6,-332"/>
<polyline fill="none" stroke="black" points="326.6,-330 233.6,-330 "/>
<polyline fill="none" stroke="black" points="326.6,-330 326.6,-314 "/>
<polyline fill="none" stroke="black" points="326.6,-330 328.6,-332 "/>
<text text-anchor="middle" x="281.1" y="-320.8" font-family="Helvetica,sans-Serif" font-size="9.00">ServiceInterfaces</text>
</a>
</g>
</g>
<!-- src/app/AppServices&#45;&gt;src/domain/ServiceInterfaces -->
<g id="edge1" class="edge">
<title>src/app/AppServices&#45;&gt;src/domain/ServiceInterfaces</title>
<path fill="none" stroke="#000000" stroke-width="2" stroke-opacity="0.200000" d="M102.21,-392.14C130.8,-402.77 182.08,-416.61 220.6,-398 246.42,-385.53 264.46,-355.81 273.48,-337.75"/>
<polygon fill="#000000" fill-opacity="0.200000" stroke="#000000" stroke-width="2" stroke-opacity="0.200000" points="275.48,-338.43 276.19,-332.12 271.7,-336.61 275.48,-338.43"/>
</g>
<!-- src/pluginbase -->
<!-- src/app/AppServices&#45;&gt;src/pluginbase -->
<g id="edge2" class="edge">
<title>src/app/AppServices&#45;&gt;src/pluginbase</title>
<path fill="none" stroke="#000000" stroke-width="2" stroke-opacity="0.200000" d="M80.78,-373.86C81.81,-332.97 88.11,-167.26 123.6,-133 135.6,-121.41 157.13,-122.91 168.16,-124.64"/>
<polygon fill="#000000" fill-opacity="0.200000" stroke="#000000" stroke-width="2" stroke-opacity="0.200000" points="167.94,-126.73 174.22,-125.79 168.72,-122.61 167.94,-126.73"/>
</g>
<!-- src/app/Interfaces -->
<g id="node6" class="node">
<title>src/app/Interfaces</title>
<g id="a_node6"><a xlink:href="src/app/Interfaces" xlink:title="Interfaces">
<polygon fill="#ffffcc" stroke="black" points="207.1,-392 147.1,-392 145.1,-390 145.1,-374 205.1,-374 207.1,-376 207.1,-392"/>
<polyline fill="none" stroke="black" points="205.1,-390 145.1,-390 "/>
<polyline fill="none" stroke="black" points="205.1,-390 205.1,-374 "/>
<polyline fill="none" stroke="black" points="205.1,-390 207.1,-392 "/>
<text text-anchor="middle" x="176.1" y="-380.8" font-family="Helvetica,sans-Serif" font-size="9.00">Interfaces</text>
</a>
</g>
</g>
<!-- src/app/AppServices&#45;&gt;src/app/Interfaces -->
<g id="edge3" class="edge">
<title>src/app/AppServices&#45;&gt;src/app/Interfaces</title>
<path fill="none" stroke="#000000" stroke-width="2" stroke-opacity="0.200000" d="M115.79,-383C123.25,-383 131.14,-383 138.65,-383"/>
<polygon fill="#000000" fill-opacity="0.200000" stroke="#000000" stroke-width="2" stroke-opacity="0.200000" points="138.85,-385.1 144.85,-383 138.85,-380.9 138.85,-385.1"/>
</g>
<!-- src/app/Interfaces&#45;&gt;src/domain/ServiceInterfaces -->
<g id="edge4" class="edge">
<title>src/app/Interfaces&#45;&gt;src/domain/ServiceInterfaces</title>
<path fill="none" stroke="#000000" stroke-width="2" stroke-opacity="0.200000" d="M195.95,-373.98C203.68,-370.15 212.66,-365.53 220.6,-361 234.63,-353 249.99,-343.16 261.59,-335.5"/>
<polygon fill="#000000" fill-opacity="0.200000" stroke="#000000" stroke-width="2" stroke-opacity="0.200000" points="262.8,-337.22 266.63,-332.15 260.47,-333.72 262.8,-337.22"/>
</g>
<!-- src/domain -->
<!-- src/domain/Services -->
<!-- src/domain/Services&#45;&gt;src/domain/ServiceInterfaces -->
<g id="edge5" class="edge">
<title>src/domain/Services&#45;&gt;src/domain/ServiceInterfaces</title>
<path fill="none" stroke="#000000" stroke-width="2" stroke-opacity="0.200000" d="M178.18,-304.12C183.09,-304.66 203.79,-307.01 220.6,-310 225.21,-310.82 230.01,-311.75 234.79,-312.72"/>
<polygon fill="#000000" fill-opacity="0.200000" stroke="#000000" stroke-width="2" stroke-opacity="0.200000" points="234.52,-314.8 240.82,-313.96 235.37,-310.69 234.52,-314.8"/>
</g>
<!-- src/domain/Services/Interpreters -->
<g id="node9" class="node">
<title>src/domain/Services/Interpreters</title>
<g id="a_node9"><a xlink:href="src/domain/Services/Interpreters" xlink:title="Interpreters">
<polygon fill="#ffffcc" stroke="black" points="211.6,-290 142.6,-290 140.6,-288 140.6,-272 209.6,-272 211.6,-274 211.6,-290"/>
<polyline fill="none" stroke="black" points="209.6,-288 140.6,-288 "/>
<polyline fill="none" stroke="black" points="209.6,-288 209.6,-272 "/>
<polyline fill="none" stroke="black" points="209.6,-288 211.6,-290 "/>
<text text-anchor="middle" x="176.1" y="-278.8" font-family="Helvetica,sans-Serif" font-size="9.00">Interpreters</text>
</a>
</g>
</g>
<!-- src/domain/Services/Interpreters&#45;&gt;src/domain/ServiceInterfaces -->
<g id="edge6" class="edge">
<title>src/domain/Services/Interpreters&#45;&gt;src/domain/ServiceInterfaces</title>
<path fill="none" stroke="#000000" stroke-width="2" stroke-opacity="0.200000" d="M204.86,-290.14C210.12,-291.99 215.55,-293.99 220.6,-296 232.25,-300.64 244.93,-306.31 255.58,-311.25"/>
<polygon fill="#000000" fill-opacity="0.200000" stroke="#000000" stroke-width="2" stroke-opacity="0.200000" points="254.95,-313.27 261.27,-313.91 256.72,-309.46 254.95,-313.27"/>
</g>
<!-- src/impl -->
<!-- src/impl/LocalStorages -->
<g id="node11" class="node">
<title>src/impl/LocalStorages</title>
<g id="a_node11"><a xlink:href="src/impl/LocalStorages" xlink:title="LocalStorages">
<polygon fill="#ccffcc" stroke="black" points="215.6,-498 138.6,-498 136.6,-496 136.6,-480 213.6,-480 215.6,-482 215.6,-498"/>
<polyline fill="none" stroke="black" points="213.6,-496 136.6,-496 "/>
<polyline fill="none" stroke="black" points="213.6,-496 213.6,-480 "/>
<polyline fill="none" stroke="black" points="213.6,-496 215.6,-498 "/>
<text text-anchor="middle" x="176.1" y="-486.8" font-family="Helvetica,sans-Serif" font-size="9.00">LocalStorages</text>
</a>
</g>
</g>
<!-- src/impl/RemoteServices -->
<g id="node12" class="node">
<title>src/impl/RemoteServices</title>
<g id="a_node12"><a xlink:href="src/impl/RemoteServices" xlink:title="RemoteServices">
<polygon fill="#ffffcc" stroke="black" points="220.6,-468 133.6,-468 131.6,-466 131.6,-450 218.6,-450 220.6,-452 220.6,-468"/>
<polyline fill="none" stroke="black" points="218.6,-466 131.6,-466 "/>
<polyline fill="none" stroke="black" points="218.6,-466 218.6,-450 "/>
<polyline fill="none" stroke="black" points="218.6,-466 220.6,-468 "/>
<text text-anchor="middle" x="176.1" y="-456.8" font-family="Helvetica,sans-Serif" font-size="9.00">RemoteServices</text>
</a>
</g>
</g>
<!-- src/impl/RemoteServices&#45;&gt;src/domain/ServiceInterfaces -->
<g id="edge7" class="edge">
<title>src/impl/RemoteServices&#45;&gt;src/domain/ServiceInterfaces</title>
<path fill="none" stroke="#000000" stroke-width="2" stroke-opacity="0.200000" d="M201.41,-450C208.19,-446.66 215.18,-442.35 220.6,-437 249.91,-408.06 267.88,-361.62 275.63,-337.93"/>
<polygon fill="#000000" fill-opacity="0.200000" stroke="#000000" stroke-width="2" stroke-opacity="0.200000" points="277.65,-338.51 277.46,-332.16 273.65,-337.24 277.65,-338.51"/>
</g>
<!-- src/impl/remote&#45;apis -->
<g id="node13" class="node">
<title>src/impl/remote&#45;apis</title>
<g id="a_node13"><a xlink:href="src/impl/remote-apis" xlink:title="remote&#45;apis">
<polygon fill="#ccffcc" stroke="black" points="316.1,-468 248.1,-468 246.1,-466 246.1,-450 314.1,-450 316.1,-452 316.1,-468"/>
<polyline fill="none" stroke="black" points="314.1,-466 246.1,-466 "/>
<polyline fill="none" stroke="black" points="314.1,-466 314.1,-450 "/>
<polyline fill="none" stroke="black" points="314.1,-466 316.1,-468 "/>
<text text-anchor="middle" x="281.1" y="-456.8" font-family="Helvetica,sans-Serif" font-size="9.00">remote&#45;apis</text>
</a>
</g>
</g>
<!-- src/impl/RemoteServices&#45;&gt;src/impl/remote&#45;apis -->
<g id="edge8" class="edge">
<title>src/impl/RemoteServices&#45;&gt;src/impl/remote&#45;apis</title>
<path fill="none" stroke="#000000" stroke-width="2" stroke-opacity="0.200000" d="M220.78,-459C227.11,-459 233.61,-459 239.87,-459"/>
<polygon fill="#000000" fill-opacity="0.200000" stroke="#000000" stroke-width="2" stroke-opacity="0.200000" points="240.04,-461.1 246.04,-459 240.04,-456.9 240.04,-461.1"/>
</g>
<!-- src/pluginbase/base -->
<!-- src/pluginbase/base/view -->
<g id="node15" class="node">
<title>src/pluginbase/base/view</title>
<g id="a_node15"><a xlink:href="src/pluginbase/base/view" xlink:title="view">
<polygon fill="#ccffcc" stroke="black" points="308.1,-178 256.1,-178 254.1,-176 254.1,-160 306.1,-160 308.1,-162 308.1,-178"/>
<polyline fill="none" stroke="black" points="306.1,-176 254.1,-176 "/>
<polyline fill="none" stroke="black" points="306.1,-176 306.1,-160 "/>
<polyline fill="none" stroke="black" points="306.1,-176 308.1,-178 "/>
<text text-anchor="middle" x="281.1" y="-166.8" font-family="Helvetica,sans-Serif" font-size="9.00">view</text>
</a>
</g>
</g>
<!-- src/pluginbase/base&#45;&gt;src/pluginbase/base/view -->
<g id="edge9" class="edge">
<title>src/pluginbase/base&#45;&gt;src/pluginbase/base/view</title>
<path fill="none" stroke="#000000" stroke-width="2" stroke-opacity="0.200000" d="M178.26,-175.92C185.08,-175.46 220.69,-173.04 247.9,-171.19"/>
<polygon fill="#000000" fill-opacity="0.200000" stroke="#000000" stroke-width="2" stroke-opacity="0.200000" points="248.07,-173.28 253.91,-170.78 247.78,-169.09 248.07,-173.28"/>
</g>
<!-- src/pluginbase/base/common -->
<g id="node16" class="node">
<title>src/pluginbase/base/common</title>
<g id="a_node16"><a xlink:href="src/pluginbase/base/common" xlink:title="common">
<polygon fill="#ccffcc" stroke="black" points="204.1,-162 150.1,-162 148.1,-160 148.1,-144 202.1,-144 204.1,-146 204.1,-162"/>
<polyline fill="none" stroke="black" points="202.1,-160 148.1,-160 "/>
<polyline fill="none" stroke="black" points="202.1,-160 202.1,-144 "/>
<polyline fill="none" stroke="black" points="202.1,-160 204.1,-162 "/>
<text text-anchor="middle" x="176.1" y="-150.8" font-family="Helvetica,sans-Serif" font-size="9.00">common</text>
</a>
</g>
</g>
<!-- src/view -->
<!-- src/view&#45;&gt;src/domain/ServiceInterfaces -->
<g id="edge11" class="edge">
<title>src/view&#45;&gt;src/domain/ServiceInterfaces</title>
<path fill="none" stroke="#000000" stroke-width="2" stroke-opacity="0.200000" d="M26.77,-74.66C26.57,-93.54 27.31,-267.92 123.6,-335 162.44,-362.05 220.61,-346.87 254.01,-334.31"/>
<polygon fill="#000000" fill-opacity="0.200000" stroke="#000000" stroke-width="2" stroke-opacity="0.200000" points="255.12,-336.14 259.95,-332.01 253.6,-332.22 255.12,-336.14"/>
</g>
<!-- src/view&#45;&gt;src/app/Interfaces -->
<g id="edge10" class="edge">
<title>src/view&#45;&gt;src/app/Interfaces</title>
<path fill="none" stroke="#000000" stroke-width="2" stroke-opacity="0.200000" d="M26.78,-74.76C26.42,-100.59 22.61,-401.34 35.6,-414 68.89,-446.44 128.16,-414.8 157.56,-395.49"/>
<polygon fill="#000000" fill-opacity="0.200000" stroke="#000000" stroke-width="2" stroke-opacity="0.200000" points="158.88,-397.14 162.69,-392.05 156.54,-393.65 158.88,-397.14"/>
</g>
<!-- src/view/assets -->
<g id="node18" class="node">
<title>src/view/assets</title>
<g id="a_node18"><a xlink:href="src/view/assets" xlink:title="assets">
<polygon fill="#ccffcc" stroke="black" points="308.1,-68 256.1,-68 254.1,-66 254.1,-50 306.1,-50 308.1,-52 308.1,-68"/>
<polyline fill="none" stroke="black" points="306.1,-66 254.1,-66 "/>
<polyline fill="none" stroke="black" points="306.1,-66 306.1,-50 "/>
<polyline fill="none" stroke="black" points="306.1,-66 308.1,-68 "/>
<text text-anchor="middle" x="281.1" y="-56.8" font-family="Helvetica,sans-Serif" font-size="9.00">assets</text>
</a>
</g>
</g>
<!-- src/view&#45;&gt;src/view/assets -->
<g id="edge12" class="edge">
<title>src/view&#45;&gt;src/view/assets</title>
<path fill="none" stroke="#000000" stroke-width="2" stroke-opacity="0.200000" d="M26.98,-71.55C27.72,-65.94 30.69,-45.71 35.6,-42 41.41,-37.61 202.48,-41.58 220.6,-44 229.61,-45.21 239.22,-47.27 248.03,-49.49"/>
<polygon fill="#000000" fill-opacity="0.200000" stroke="#000000" stroke-width="2" stroke-opacity="0.200000" points="247.65,-51.57 253.99,-51.05 248.71,-47.5 247.65,-51.57"/>
</g>
<!-- src/view/common -->
<g id="node19" class="node">
<title>src/view/common</title>
<g id="a_node19"><a xlink:href="src/view/common" xlink:title="common">
<polygon fill="#ffffcc" stroke="black" points="204.1,-68 150.1,-68 148.1,-66 148.1,-50 202.1,-50 204.1,-52 204.1,-68"/>
<polyline fill="none" stroke="black" points="202.1,-66 148.1,-66 "/>
<polyline fill="none" stroke="black" points="202.1,-66 202.1,-50 "/>
<polyline fill="none" stroke="black" points="202.1,-66 204.1,-68 "/>
<text text-anchor="middle" x="176.1" y="-56.8" font-family="Helvetica,sans-Serif" font-size="9.00">common</text>
</a>
</g>
</g>
<!-- src/view&#45;&gt;src/view/common -->
<g id="edge13" class="edge">
<title>src/view&#45;&gt;src/view/common</title>
<path fill="none" stroke="#000000" stroke-width="2" stroke-opacity="0.200000" d="M27.13,-71.59C27.94,-68.47 30.36,-61 35.6,-58 67.97,-39.46 111.9,-43.59 141.75,-49.83"/>
<polygon fill="#000000" fill-opacity="0.200000" stroke="#000000" stroke-width="2" stroke-opacity="0.200000" points="141.58,-51.94 147.9,-51.18 142.49,-47.84 141.58,-51.94"/>
</g>
<!-- src/view/pages -->
<g id="node20" class="node">
<title>src/view/pages</title>
<g id="a_node20"><a xlink:href="src/view/pages" xlink:title="pages">
<polygon fill="#ffffcc" stroke="black" points="106.6,-82 54.6,-82 52.6,-80 52.6,-64 104.6,-64 106.6,-66 106.6,-82"/>
<polyline fill="none" stroke="black" points="104.6,-80 52.6,-80 "/>
<polyline fill="none" stroke="black" points="104.6,-80 104.6,-64 "/>
<polyline fill="none" stroke="black" points="104.6,-80 106.6,-82 "/>
<text text-anchor="middle" x="79.6" y="-70.8" font-family="Helvetica,sans-Serif" font-size="9.00">pages</text>
</a>
</g>
</g>
<!-- src/view&#45;&gt;src/view/pages -->
<g id="edge14" class="edge">
<title>src/view&#45;&gt;src/view/pages</title>
<path fill="none" stroke="#000000" stroke-width="2" stroke-opacity="0.200000" d="M27.7,-73C30.23,-73 37.8,-73 46.35,-73"/>
<polygon fill="#000000" fill-opacity="0.200000" stroke="#000000" stroke-width="2" stroke-opacity="0.200000" points="46.38,-75.1 52.38,-73 46.38,-70.9 46.38,-75.1"/>
</g>
<!-- src/view/common&#45;&gt;src/view/assets -->
<g id="edge15" class="edge">
<title>src/view/common&#45;&gt;src/view/assets</title>
<path fill="none" stroke="#000000" stroke-width="2" stroke-opacity="0.200000" d="M204.16,-59C217.5,-59 233.68,-59 247.67,-59"/>
<polygon fill="#000000" fill-opacity="0.200000" stroke="#000000" stroke-width="2" stroke-opacity="0.200000" points="247.93,-61.1 253.93,-59 247.93,-56.9 247.93,-61.1"/>
</g>
<!-- src/view/pages&#45;&gt;src/domain/ServiceInterfaces -->
<g id="edge17" class="edge">
<title>src/view/pages&#45;&gt;src/domain/ServiceInterfaces</title>
<path fill="none" stroke="#000000" stroke-width="2" stroke-opacity="0.200000" d="M80.96,-82.12C82.36,-105.84 89.31,-170.16 123.6,-207 155.26,-241.01 183.54,-217.97 220.6,-246 243.48,-263.31 262.18,-291.53 272.19,-308.58"/>
<polygon fill="#000000" fill-opacity="0.200000" stroke="#000000" stroke-width="2" stroke-opacity="0.200000" points="270.43,-309.74 275.24,-313.9 274.08,-307.65 270.43,-309.74"/>
</g>
<!-- src/view/pages&#45;&gt;src/pluginbase -->
<g id="edge18" class="edge">
<title>src/view/pages&#45;&gt;src/pluginbase</title>
<path fill="none" stroke="#000000" stroke-width="2" stroke-opacity="0.200000" d="M88.62,-82.1C96.66,-90.71 109.81,-103.4 123.6,-111 138.16,-119.02 157.45,-123.15 167.8,-124.91"/>
<polygon fill="#000000" fill-opacity="0.200000" stroke="#000000" stroke-width="2" stroke-opacity="0.200000" points="167.49,-126.99 173.74,-125.83 168.13,-122.84 167.49,-126.99"/>
</g>
<!-- src/view/pages&#45;&gt;src/app/Interfaces -->
<g id="edge16" class="edge">
<title>src/view/pages&#45;&gt;src/app/Interfaces</title>
<path fill="none" stroke="#000000" stroke-width="2" stroke-opacity="0.200000" d="M81.31,-82.12C84.59,-123.03 99.23,-289.49 123.6,-335 131.21,-349.2 144.63,-361.51 155.87,-370.1"/>
<polygon fill="#000000" fill-opacity="0.200000" stroke="#000000" stroke-width="2" stroke-opacity="0.200000" points="154.78,-371.9 160.85,-373.78 157.27,-368.52 154.78,-371.9"/>
</g>
<!-- src/view/pages&#45;&gt;src/view/assets -->
<g id="edge19" class="edge">
<title>src/view/pages&#45;&gt;src/view/assets</title>
<path fill="none" stroke="#000000" stroke-width="2" stroke-opacity="0.200000" d="M106.98,-73.71C112.47,-73.83 118.22,-73.94 123.6,-74 166.71,-74.5 177.82,-79.31 220.6,-74 229.62,-72.88 239.23,-70.84 248.05,-68.62"/>
<polygon fill="#000000" fill-opacity="0.200000" stroke="#000000" stroke-width="2" stroke-opacity="0.200000" points="248.73,-70.61 254,-67.06 247.67,-66.55 248.73,-70.61"/>
</g>
<!-- src/view/pages&#45;&gt;src/view/common -->
<g id="edge20" class="edge">
<title>src/view/pages&#45;&gt;src/view/common</title>
<path fill="none" stroke="#000000" stroke-width="2" stroke-opacity="0.200000" d="M106.67,-69.14C117.46,-67.54 130.1,-65.67 141.57,-63.97"/>
<polygon fill="#000000" fill-opacity="0.200000" stroke="#000000" stroke-width="2" stroke-opacity="0.200000" points="142.17,-66 147.79,-63.05 141.55,-61.85 142.17,-66"/>
</g>
</g>
</svg>
