<?xml version="1.0" encoding="UTF-8" standalone="no"?>
<!DOCTYPE svg PUBLIC "-//W3C//DTD SVG 1.1//EN"
 "http://www.w3.org/Graphics/SVG/1.1/DTD/svg11.dtd">
<!-- Generated by graphviz version 2.43.0 (0)
 -->
<!-- Title: dependency&#45;cruiser output Pages: 1 -->
<svg width="543pt" height="558pt"
 viewBox="0.00 0.00 542.60 558.00" xmlns="http://www.w3.org/2000/svg" xmlns:xlink="http://www.w3.org/1999/xlink">
<g id="graph0" class="graph" transform="scale(1 1) rotate(0) translate(4 554)">
<title>dependency&#45;cruiser output</title>
<polygon fill="white" stroke="transparent" points="-4,4 -4,-554 538.6,-554 538.6,4 -4,4"/>
<g id="clust1" class="cluster">
<title>cluster_src</title>
<path fill="#ffffff" stroke="black" stroke-width="2" d="M20,-8C20,-8 514.6,-8 514.6,-8 520.6,-8 526.6,-14 526.6,-20 526.6,-20 526.6,-530 526.6,-530 526.6,-536 520.6,-542 514.6,-542 514.6,-542 20,-542 20,-542 14,-542 8,-536 8,-530 8,-530 8,-20 8,-20 8,-14 14,-8 20,-8"/>
<text text-anchor="middle" x="267.3" y="-530.8" font-family="Helvetica,sans-Serif" font-weight="bold" font-size="9.00">src</text>
</g>
<g id="clust2" class="cluster">
<title>cluster_src/app</title>
<path fill="#ffffff" stroke="black" stroke-width="2" d="M138.6,-62C138.6,-62 285.6,-62 285.6,-62 291.6,-62 297.6,-68 297.6,-74 297.6,-74 297.6,-118 297.6,-118 297.6,-124 291.6,-130 285.6,-130 285.6,-130 138.6,-130 138.6,-130 132.6,-130 126.6,-124 126.6,-118 126.6,-118 126.6,-74 126.6,-74 126.6,-68 132.6,-62 138.6,-62"/>
<text text-anchor="middle" x="212.1" y="-118.8" font-family="Helvetica,sans-Serif" font-weight="bold" font-size="9.00">app</text>
</g>
<g id="clust3" class="cluster">
<title>cluster_src/domain</title>
<path fill="#ffffff" stroke="black" stroke-width="2" d="M318.6,-16C318.6,-16 506.6,-16 506.6,-16 512.6,-16 518.6,-22 518.6,-28 518.6,-28 518.6,-118 518.6,-118 518.6,-124 512.6,-130 506.6,-130 506.6,-130 318.6,-130 318.6,-130 312.6,-130 306.6,-124 306.6,-118 306.6,-118 306.6,-28 306.6,-28 306.6,-22 312.6,-16 318.6,-16"/>
<text text-anchor="middle" x="412.6" y="-118.8" font-family="Helvetica,sans-Serif" font-weight="bold" font-size="9.00">domain</text>
</g>
<g id="clust4" class="cluster">
<title>cluster_src/domain/Services</title>
<path fill="#ffffff" stroke="black" stroke-width="2" d="M326.6,-36C326.6,-36 389.6,-36 389.6,-36 395.6,-36 401.6,-42 401.6,-48 401.6,-48 401.6,-92 401.6,-92 401.6,-98 395.6,-104 389.6,-104 389.6,-104 326.6,-104 326.6,-104 320.6,-104 314.6,-98 314.6,-92 314.6,-92 314.6,-48 314.6,-48 314.6,-42 320.6,-36 326.6,-36"/>
<text text-anchor="middle" x="358.1" y="-92.8" font-family="Helvetica,sans-Serif" font-weight="bold" font-size="9.00">Services</text>
</g>
<g id="clust5" class="cluster">
<title>cluster_src/impl</title>
<path fill="#ffffff" stroke="black" stroke-width="2" d="M317.6,-418C317.6,-418 494.1,-418 494.1,-418 500.1,-418 506.1,-424 506.1,-430 506.1,-430 506.1,-504 506.1,-504 506.1,-510 500.1,-516 494.1,-516 494.1,-516 317.6,-516 317.6,-516 311.6,-516 305.6,-510 305.6,-504 305.6,-504 305.6,-430 305.6,-430 305.6,-424 311.6,-418 317.6,-418"/>
<text text-anchor="middle" x="405.85" y="-504.8" font-family="Helvetica,sans-Serif" font-weight="bold" font-size="9.00">impl</text>
</g>
<g id="clust6" class="cluster">
<title>cluster_src/pluginbase</title>
<path fill="#ffffff" stroke="black" stroke-width="2" d="M226.6,-138C226.6,-138 389.1,-138 389.1,-138 395.1,-138 401.1,-144 401.1,-150 401.1,-150 401.1,-240 401.1,-240 401.1,-246 395.1,-252 389.1,-252 389.1,-252 226.6,-252 226.6,-252 220.6,-252 214.6,-246 214.6,-240 214.6,-240 214.6,-150 214.6,-150 214.6,-144 220.6,-138 226.6,-138"/>
<text text-anchor="middle" x="307.85" y="-240.8" font-family="Helvetica,sans-Serif" font-weight="bold" font-size="9.00">pluginbase</text>
</g>
<g id="clust7" class="cluster">
<title>cluster_src/pluginbase/base</title>
<path fill="#ffffff" stroke="black" stroke-width="2" d="M234.6,-158C234.6,-158 381.1,-158 381.1,-158 387.1,-158 393.1,-164 393.1,-170 393.1,-170 393.1,-214 393.1,-214 393.1,-220 387.1,-226 381.1,-226 381.1,-226 234.6,-226 234.6,-226 228.6,-226 222.6,-220 222.6,-214 222.6,-214 222.6,-170 222.6,-170 222.6,-164 228.6,-158 234.6,-158"/>
<text text-anchor="middle" x="307.85" y="-214.8" font-family="Helvetica,sans-Serif" font-weight="bold" font-size="9.00">base</text>
</g>
<g id="clust8" class="cluster">
<title>cluster_src/view</title>
<path fill="#ffffff" stroke="black" stroke-width="2" d="M28,-260C28,-260 381.1,-260 381.1,-260 387.1,-260 393.1,-266 393.1,-272 393.1,-272 393.1,-398 393.1,-398 393.1,-404 387.1,-410 381.1,-410 381.1,-410 28,-410 28,-410 22,-410 16,-404 16,-398 16,-398 16,-272 16,-272 16,-266 22,-260 28,-260"/>
<text text-anchor="middle" x="204.55" y="-398.8" font-family="Helvetica,sans-Serif" font-weight="bold" font-size="9.00">view</text>
</g>
<g id="clust9" class="cluster">
<title>cluster_src/view/pages</title>
<path fill="#ffffff" stroke="black" stroke-width="2" d="M36,-268C36,-268 168.4,-268 168.4,-268 174.4,-268 180.4,-274 180.4,-280 180.4,-280 180.4,-348 180.4,-348 180.4,-354 174.4,-360 168.4,-360 168.4,-360 36,-360 36,-360 30,-360 24,-354 24,-348 24,-348 24,-280 24,-280 24,-274 30,-268 36,-268"/>
<text text-anchor="middle" x="102.2" y="-348.8" font-family="Helvetica,sans-Serif" font-weight="bold" font-size="9.00">pages</text>
</g>
<g id="clust10" class="cluster">
<title>cluster_src/view/pages/HighlightLive</title>
<path fill="#ffffff" stroke="black" stroke-width="2" d="M44,-282C44,-282 106.6,-282 106.6,-282 112.6,-282 118.6,-288 118.6,-294 118.6,-294 118.6,-322 118.6,-322 118.6,-328 112.6,-334 106.6,-334 106.6,-334 44,-334 44,-334 38,-334 32,-328 32,-322 32,-322 32,-294 32,-294 32,-288 38,-282 44,-282"/>
<text text-anchor="middle" x="75.3" y="-322.8" font-family="Helvetica,sans-Serif" font-weight="bold" font-size="9.00">HighlightLive</text>
</g>
<!-- src -->
<!-- src/app -->
<!-- src/app/AppServices -->
<g id="node3" class="node">
<title>src/app/AppServices</title>
<g id="a_node3"><a xlink:href="src/app/AppServices" xlink:title="AppServices">
<polygon fill="#ffffcc" stroke="black" points="206.6,-88 136.6,-88 134.6,-86 134.6,-70 204.6,-70 206.6,-72 206.6,-88"/>
<polyline fill="none" stroke="black" points="204.6,-86 134.6,-86 "/>
<polyline fill="none" stroke="black" points="204.6,-86 204.6,-70 "/>
<polyline fill="none" stroke="black" points="204.6,-86 206.6,-88 "/>
<text text-anchor="middle" x="170.6" y="-76.8" font-family="Helvetica,sans-Serif" font-size="9.00">AppServices</text>
</a>
</g>
</g>
<!-- src/domain/ServiceInterfaces -->
<g id="node4" class="node">
<title>src/domain/ServiceInterfaces</title>
<g id="a_node4"><a xlink:href="src/domain/ServiceInterfaces" xlink:title="ServiceInterfaces">
<polygon fill="#ffffcc" stroke="black" points="510.6,-104 417.6,-104 415.6,-102 415.6,-86 508.6,-86 510.6,-88 510.6,-104"/>
<polyline fill="none" stroke="black" points="508.6,-102 415.6,-102 "/>
<polyline fill="none" stroke="black" points="508.6,-102 508.6,-86 "/>
<polyline fill="none" stroke="black" points="508.6,-102 510.6,-104 "/>
<text text-anchor="middle" x="463.1" y="-92.8" font-family="Helvetica,sans-Serif" font-size="9.00">ServiceInterfaces</text>
</a>
</g>
</g>
<!-- src/app/AppServices&#45;&gt;src/domain/ServiceInterfaces -->
<g id="edge1" class="edge">
<title>src/app/AppServices&#45;&gt;src/domain/ServiceInterfaces</title>
<path fill="none" stroke="#000000" stroke-width="2" stroke-opacity="0.200000" d="M195.96,-88C199.65,-89.77 203.32,-91.78 206.6,-94 210.76,-96.82 210.09,-99.78 214.6,-102 289.69,-139.04 319.87,-126.89 402.6,-114 412.89,-112.4 423.84,-109.32 433.5,-106.1"/>
<polygon fill="#000000" fill-opacity="0.200000" stroke="#000000" stroke-width="2" stroke-opacity="0.200000" points="434.34,-108.04 439.33,-104.09 432.97,-104.06 434.34,-108.04"/>
</g>
<!-- src/pluginbase -->
<!-- src/app/AppServices&#45;&gt;src/pluginbase -->
<g id="edge2" class="edge">
<title>src/app/AppServices&#45;&gt;src/pluginbase</title>
<path fill="none" stroke="#000000" stroke-width="2" stroke-opacity="0.200000" d="M200.07,-88.19C202.52,-89.82 204.76,-91.75 206.6,-94 217.78,-107.71 202.95,-119.68 214.6,-133 223.71,-143.41 240.46,-146.6 250.15,-147.57"/>
<polygon fill="#000000" fill-opacity="0.200000" stroke="#000000" stroke-width="2" stroke-opacity="0.200000" points="250.17,-149.68 256.3,-147.98 250.45,-145.49 250.17,-149.68"/>
</g>
<!-- src/app/Interfaces -->
<g id="node6" class="node">
<title>src/app/Interfaces</title>
<g id="a_node6"><a xlink:href="src/app/Interfaces" xlink:title="Interfaces">
<polygon fill="#ffffcc" stroke="black" points="289.6,-96 229.6,-96 227.6,-94 227.6,-78 287.6,-78 289.6,-80 289.6,-96"/>
<polyline fill="none" stroke="black" points="287.6,-94 227.6,-94 "/>
<polyline fill="none" stroke="black" points="287.6,-94 287.6,-78 "/>
<polyline fill="none" stroke="black" points="287.6,-94 289.6,-96 "/>
<text text-anchor="middle" x="258.6" y="-84.8" font-family="Helvetica,sans-Serif" font-size="9.00">Interfaces</text>
</a>
</g>
</g>
<!-- src/app/AppServices&#45;&gt;src/app/Interfaces -->
<g id="edge3" class="edge">
<title>src/app/AppServices&#45;&gt;src/app/Interfaces</title>
<path fill="none" stroke="#000000" stroke-width="2" stroke-opacity="0.200000" d="M207.08,-82.3C211.72,-82.73 216.49,-83.18 221.15,-83.61"/>
<polygon fill="#000000" fill-opacity="0.200000" stroke="#000000" stroke-width="2" stroke-opacity="0.200000" points="221.25,-85.73 227.41,-84.19 221.63,-81.55 221.25,-85.73"/>
</g>
<!-- src/app/Interfaces&#45;&gt;src/domain/ServiceInterfaces -->
<g id="edge4" class="edge">
<title>src/app/Interfaces&#45;&gt;src/domain/ServiceInterfaces</title>
<path fill="none" stroke="#000000" stroke-width="2" stroke-opacity="0.200000" d="M276.09,-96.13C284.62,-100.34 295.37,-104.87 305.6,-107 342.49,-114.67 385.19,-110.56 416.66,-105.15"/>
<polygon fill="#000000" fill-opacity="0.200000" stroke="#000000" stroke-width="2" stroke-opacity="0.200000" points="417.26,-107.17 422.8,-104.05 416.52,-103.04 417.26,-107.17"/>
</g>
<!-- src/domain -->
<!-- src/domain/Services -->
<!-- src/domain/Services&#45;&gt;src/domain/ServiceInterfaces -->
<g id="edge5" class="edge">
<title>src/domain/Services&#45;&gt;src/domain/ServiceInterfaces</title>
<path fill="none" stroke="#000000" stroke-width="2" stroke-opacity="0.200000" d="M360.18,-76.12C365.09,-76.66 385.79,-79.01 402.6,-82 407.21,-82.82 412.01,-83.75 416.79,-84.72"/>
<polygon fill="#000000" fill-opacity="0.200000" stroke="#000000" stroke-width="2" stroke-opacity="0.200000" points="416.52,-86.8 422.82,-85.96 417.37,-82.69 416.52,-86.8"/>
</g>
<!-- src/domain/Services/Interpreters -->
<g id="node9" class="node">
<title>src/domain/Services/Interpreters</title>
<g id="a_node9"><a xlink:href="src/domain/Services/Interpreters" xlink:title="Interpreters">
<polygon fill="#ffffcc" stroke="black" points="393.6,-62 324.6,-62 322.6,-60 322.6,-44 391.6,-44 393.6,-46 393.6,-62"/>
<polyline fill="none" stroke="black" points="391.6,-60 322.6,-60 "/>
<polyline fill="none" stroke="black" points="391.6,-60 391.6,-44 "/>
<polyline fill="none" stroke="black" points="391.6,-60 393.6,-62 "/>
<text text-anchor="middle" x="358.1" y="-50.8" font-family="Helvetica,sans-Serif" font-size="9.00">Interpreters</text>
</a>
</g>
</g>
<!-- src/domain/Services/Interpreters&#45;&gt;src/domain/ServiceInterfaces -->
<g id="edge6" class="edge">
<title>src/domain/Services/Interpreters&#45;&gt;src/domain/ServiceInterfaces</title>
<path fill="none" stroke="#000000" stroke-width="2" stroke-opacity="0.200000" d="M386.86,-62.14C392.12,-63.99 397.55,-65.99 402.6,-68 414.25,-72.64 426.93,-78.31 437.58,-83.25"/>
<polygon fill="#000000" fill-opacity="0.200000" stroke="#000000" stroke-width="2" stroke-opacity="0.200000" points="436.95,-85.27 443.27,-85.91 438.72,-81.46 436.95,-85.27"/>
</g>
<!-- src/impl -->
<!-- src/impl/LocalStorages -->
<g id="node11" class="node">
<title>src/impl/LocalStorages</title>
<g id="a_node11"><a xlink:href="src/impl/LocalStorages" xlink:title="LocalStorages">
<polygon fill="#ccffcc" stroke="black" points="397.6,-474 320.6,-474 318.6,-472 318.6,-456 395.6,-456 397.6,-458 397.6,-474"/>
<polyline fill="none" stroke="black" points="395.6,-472 318.6,-472 "/>
<polyline fill="none" stroke="black" points="395.6,-472 395.6,-456 "/>
<polyline fill="none" stroke="black" points="395.6,-472 397.6,-474 "/>
<text text-anchor="middle" x="358.1" y="-462.8" font-family="Helvetica,sans-Serif" font-size="9.00">LocalStorages</text>
</a>
</g>
</g>
<!-- src/impl/RemoteServices -->
<g id="node12" class="node">
<title>src/impl/RemoteServices</title>
<g id="a_node12"><a xlink:href="src/impl/RemoteServices" xlink:title="RemoteServices">
<polygon fill="#ffffcc" stroke="black" points="402.6,-444 315.6,-444 313.6,-442 313.6,-426 400.6,-426 402.6,-428 402.6,-444"/>
<polyline fill="none" stroke="black" points="400.6,-442 313.6,-442 "/>
<polyline fill="none" stroke="black" points="400.6,-442 400.6,-426 "/>
<polyline fill="none" stroke="black" points="400.6,-442 402.6,-444 "/>
<text text-anchor="middle" x="358.1" y="-432.8" font-family="Helvetica,sans-Serif" font-size="9.00">RemoteServices</text>
</a>
</g>
</g>
<!-- src/impl/RemoteServices&#45;&gt;src/domain/ServiceInterfaces -->
<g id="edge7" class="edge">
<title>src/impl/RemoteServices&#45;&gt;src/domain/ServiceInterfaces</title>
<path fill="none" stroke="#000000" stroke-width="2" stroke-opacity="0.200000" d="M386.75,-425.78C392.76,-422.59 398.54,-418.42 402.6,-413 439.45,-363.89 456.75,-166.76 461.02,-110.22"/>
<polygon fill="#000000" fill-opacity="0.200000" stroke="#000000" stroke-width="2" stroke-opacity="0.200000" points="463.13,-110.18 461.48,-104.05 458.94,-109.88 463.13,-110.18"/>
</g>
<!-- src/impl/remote&#45;apis -->
<g id="node13" class="node">
<title>src/impl/remote&#45;apis</title>
<g id="a_node13"><a xlink:href="src/impl/remote-apis" xlink:title="remote&#45;apis">
<polygon fill="#ccffcc" stroke="black" points="498.1,-444 430.1,-444 428.1,-442 428.1,-426 496.1,-426 498.1,-428 498.1,-444"/>
<polyline fill="none" stroke="black" points="496.1,-442 428.1,-442 "/>
<polyline fill="none" stroke="black" points="496.1,-442 496.1,-426 "/>
<polyline fill="none" stroke="black" points="496.1,-442 498.1,-444 "/>
<text text-anchor="middle" x="463.1" y="-432.8" font-family="Helvetica,sans-Serif" font-size="9.00">remote&#45;apis</text>
</a>
</g>
</g>
<!-- src/impl/RemoteServices&#45;&gt;src/impl/remote&#45;apis -->
<g id="edge8" class="edge">
<title>src/impl/RemoteServices&#45;&gt;src/impl/remote&#45;apis</title>
<path fill="none" stroke="#000000" stroke-width="2" stroke-opacity="0.200000" d="M402.78,-435C409.11,-435 415.61,-435 421.87,-435"/>
<polygon fill="#000000" fill-opacity="0.200000" stroke="#000000" stroke-width="2" stroke-opacity="0.200000" points="422.04,-437.1 428.04,-435 422.04,-432.9 422.04,-437.1"/>
</g>
<!-- src/pluginbase/base -->
<!-- src/pluginbase/base/view -->
<g id="node15" class="node">
<title>src/pluginbase/base/view</title>
<g id="a_node15"><a xlink:href="src/pluginbase/base/view" xlink:title="view">
<polygon fill="#ccffcc" stroke="black" points="385.1,-192 333.1,-192 331.1,-190 331.1,-174 383.1,-174 385.1,-176 385.1,-192"/>
<polyline fill="none" stroke="black" points="383.1,-190 331.1,-190 "/>
<polyline fill="none" stroke="black" points="383.1,-190 383.1,-174 "/>
<polyline fill="none" stroke="black" points="383.1,-190 385.1,-192 "/>
<text text-anchor="middle" x="358.1" y="-180.8" font-family="Helvetica,sans-Serif" font-size="9.00">view</text>
</a>
</g>
</g>
<!-- src/pluginbase/base&#45;&gt;src/pluginbase/base/view -->
<g id="edge9" class="edge">
<title>src/pluginbase/base&#45;&gt;src/pluginbase/base/view</title>
<path fill="none" stroke="#000000" stroke-width="2" stroke-opacity="0.200000" d="M260.69,-197.83C267.01,-196.86 299.38,-191.88 324.89,-187.96"/>
<polygon fill="#000000" fill-opacity="0.200000" stroke="#000000" stroke-width="2" stroke-opacity="0.200000" points="325.26,-190.02 330.88,-187.03 324.63,-185.87 325.26,-190.02"/>
</g>
<!-- src/pluginbase/base/view&#45;&gt;src/domain/ServiceInterfaces -->
<g id="edge10" class="edge">
<title>src/pluginbase/base/view&#45;&gt;src/domain/ServiceInterfaces</title>
<path fill="none" stroke="#000000" stroke-width="2" stroke-opacity="0.200000" d="M369.73,-173.91C388.01,-158.3 425.43,-126.33 446.61,-108.24"/>
<polygon fill="#000000" fill-opacity="0.200000" stroke="#000000" stroke-width="2" stroke-opacity="0.200000" points="448.17,-109.66 451.37,-104.17 445.44,-106.47 448.17,-109.66"/>
</g>
<!-- src/pluginbase/base/common -->
<g id="node16" class="node">
<title>src/pluginbase/base/common</title>
<g id="a_node16"><a xlink:href="src/pluginbase/base/common" xlink:title="common">
<polygon fill="#ccffcc" stroke="black" points="286.6,-184 232.6,-184 230.6,-182 230.6,-166 284.6,-166 286.6,-168 286.6,-184"/>
<polyline fill="none" stroke="black" points="284.6,-182 230.6,-182 "/>
<polyline fill="none" stroke="black" points="284.6,-182 284.6,-166 "/>
<polyline fill="none" stroke="black" points="284.6,-182 286.6,-184 "/>
<text text-anchor="middle" x="258.6" y="-172.8" font-family="Helvetica,sans-Serif" font-size="9.00">common</text>
</a>
</g>
</g>
<!-- src/view -->
<!-- src/view&#45;&gt;src/domain/ServiceInterfaces -->
<g id="edge12" class="edge">
<title>src/view&#45;&gt;src/domain/ServiceInterfaces</title>
<path fill="none" stroke="#000000" stroke-width="2" stroke-opacity="0.200000" d="M85.55,-370.25C101.04,-374.26 301.21,-423.81 402.6,-332 436.09,-301.68 455.04,-157.77 460.46,-110.26"/>
<polygon fill="#000000" fill-opacity="0.200000" stroke="#000000" stroke-width="2" stroke-opacity="0.200000" points="462.56,-110.41 461.14,-104.22 458.38,-109.95 462.56,-110.41"/>
</g>
<!-- src/view&#45;&gt;src/app/Interfaces -->
<g id="edge11" class="edge">
<title>src/view&#45;&gt;src/app/Interfaces</title>
<path fill="none" stroke="#000000" stroke-width="2" stroke-opacity="0.200000" d="M85.71,-369.37C90.71,-366.48 111.17,-353.86 118.6,-337 124.72,-323.11 115.71,-74.57 126.6,-64 156.57,-34.89 209.62,-58.42 238.15,-74.72"/>
<polygon fill="#000000" fill-opacity="0.200000" stroke="#000000" stroke-width="2" stroke-opacity="0.200000" points="237.27,-76.64 243.51,-77.87 239.4,-73.02 237.27,-76.64"/>
</g>
<!-- src/view/assets -->
<g id="node18" class="node">
<title>src/view/assets</title>
<g id="a_node18"><a xlink:href="src/view/assets" xlink:title="assets">
<polygon fill="#ccffcc" stroke="black" points="385.1,-326 333.1,-326 331.1,-324 331.1,-308 383.1,-308 385.1,-310 385.1,-326"/>
<polyline fill="none" stroke="black" points="383.1,-324 331.1,-324 "/>
<polyline fill="none" stroke="black" points="383.1,-324 383.1,-308 "/>
<polyline fill="none" stroke="black" points="383.1,-324 385.1,-326 "/>
<text text-anchor="middle" x="358.1" y="-314.8" font-family="Helvetica,sans-Serif" font-size="9.00">assets</text>
</a>
</g>
</g>
<!-- src/view&#45;&gt;src/view/assets -->
<g id="edge13" class="edge">
<title>src/view&#45;&gt;src/view/assets</title>
<path fill="none" stroke="#000000" stroke-width="2" stroke-opacity="0.200000" d="M85.96,-369.8C99.39,-367.81 209.54,-351.31 297.6,-332 306.48,-330.05 316.05,-327.74 324.86,-325.52"/>
<polygon fill="#000000" fill-opacity="0.200000" stroke="#000000" stroke-width="2" stroke-opacity="0.200000" points="325.53,-327.51 330.82,-324 324.49,-323.44 325.53,-327.51"/>
</g>
<!-- src/view/common -->
<g id="node19" class="node">
<title>src/view/common</title>
<g id="a_node19"><a xlink:href="src/view/common" xlink:title="common">
<polygon fill="#ffffcc" stroke="black" points="286.6,-326 232.6,-326 230.6,-324 230.6,-308 284.6,-308 286.6,-310 286.6,-326"/>
<polyline fill="none" stroke="black" points="284.6,-324 230.6,-324 "/>
<polyline fill="none" stroke="black" points="284.6,-324 284.6,-308 "/>
<polyline fill="none" stroke="black" points="284.6,-324 286.6,-326 "/>
<text text-anchor="middle" x="258.6" y="-314.8" font-family="Helvetica,sans-Serif" font-size="9.00">common</text>
</a>
</g>
</g>
<!-- src/view&#45;&gt;src/view/common -->
<g id="edge14" class="edge">
<title>src/view&#45;&gt;src/view/common</title>
<path fill="none" stroke="#000000" stroke-width="2" stroke-opacity="0.200000" d="M85.7,-369.66C96.11,-366.47 177.53,-341.53 224.49,-327.14"/>
<polygon fill="#000000" fill-opacity="0.200000" stroke="#000000" stroke-width="2" stroke-opacity="0.200000" points="225.19,-329.13 230.31,-325.36 223.96,-325.11 225.19,-329.13"/>
</g>
<!-- src/view/pages -->
<!-- src/view&#45;&gt;src/view/pages -->
<g id="edge15" class="edge">
<title>src/view&#45;&gt;src/view/pages</title>
<path fill="none" stroke="#000000" stroke-width="2" stroke-opacity="0.200000" d="M85.66,-369.35C90.44,-366.35 110.07,-353.33 118.6,-337 128.81,-317.44 110.82,-303.42 126.6,-288 136.03,-278.78 152.66,-279.36 162.24,-280.65"/>
<polygon fill="#000000" fill-opacity="0.200000" stroke="#000000" stroke-width="2" stroke-opacity="0.200000" points="162.05,-282.75 168.32,-281.7 162.76,-278.61 162.05,-282.75"/>
</g>
<!-- src/view/common&#45;&gt;src/view/assets -->
<g id="edge16" class="edge">
<title>src/view/common&#45;&gt;src/view/assets</title>
<path fill="none" stroke="#000000" stroke-width="2" stroke-opacity="0.200000" d="M286.76,-317C298.56,-317 312.48,-317 324.81,-317"/>
<polygon fill="#000000" fill-opacity="0.200000" stroke="#000000" stroke-width="2" stroke-opacity="0.200000" points="325.09,-319.1 331.09,-317 325.09,-314.9 325.09,-319.1"/>
</g>
<!-- src/view/pages&#45;&gt;src/domain/ServiceInterfaces -->
<g id="edge18" class="edge">
<title>src/view/pages&#45;&gt;src/domain/ServiceInterfaces</title>
<path fill="none" stroke="#000000" stroke-width="2" stroke-opacity="0.200000" d="M172.66,-281.72C177.48,-280.43 197.81,-275.02 214.6,-271 297.86,-251.06 336.37,-283.26 402.6,-229 440.33,-198.09 454.92,-138.37 459.86,-110.29"/>
<polygon fill="#000000" fill-opacity="0.200000" stroke="#000000" stroke-width="2" stroke-opacity="0.200000" points="461.97,-110.44 460.87,-104.18 457.82,-109.76 461.97,-110.44"/>
</g>
<!-- src/view/pages&#45;&gt;src/pluginbase -->
<g id="edge19" class="edge">
<title>src/view/pages&#45;&gt;src/pluginbase</title>
<path fill="none" stroke="#000000" stroke-width="2" stroke-opacity="0.200000" d="M171.58,-280.45C171.51,-268.48 172.68,-190.51 214.6,-155 224.6,-146.53 240.76,-146.32 250.16,-147.07"/>
<polygon fill="#000000" fill-opacity="0.200000" stroke="#000000" stroke-width="2" stroke-opacity="0.200000" points="250.16,-149.18 256.36,-147.79 250.64,-145.01 250.16,-149.18"/>
</g>
<!-- src/view/pages&#45;&gt;src/app/Interfaces -->
<g id="edge17" class="edge">
<title>src/view/pages&#45;&gt;src/app/Interfaces</title>
<path fill="none" stroke="#000000" stroke-width="2" stroke-opacity="0.200000" d="M171.79,-280.45C173.29,-268.5 184.1,-189.84 214.6,-135 221.82,-122.01 233.13,-109.58 242.34,-100.62"/>
<polygon fill="#000000" fill-opacity="0.200000" stroke="#000000" stroke-width="2" stroke-opacity="0.200000" points="244.02,-101.92 246.93,-96.27 241.13,-98.87 244.02,-101.92"/>
</g>
<!-- src/view/pages&#45;&gt;src/view/assets -->
<g id="edge20" class="edge">
<title>src/view/pages&#45;&gt;src/view/assets</title>
<path fill="none" stroke="#000000" stroke-width="2" stroke-opacity="0.200000" d="M172.4,-282.1C180.35,-283.09 245.53,-291.33 297.6,-302 306.5,-303.83 316.08,-306.1 324.89,-308.32"/>
<polygon fill="#000000" fill-opacity="0.200000" stroke="#000000" stroke-width="2" stroke-opacity="0.200000" points="324.52,-310.39 330.85,-309.84 325.56,-306.32 324.52,-310.39"/>
</g>
<!-- src/view/pages&#45;&gt;src/view/common -->
<g id="edge21" class="edge">
<title>src/view/pages&#45;&gt;src/view/common</title>
<path fill="none" stroke="#000000" stroke-width="2" stroke-opacity="0.200000" d="M172.53,-281.96C176.74,-281.82 194.34,-281.65 206.6,-288 211.07,-290.31 210.51,-293.08 214.6,-296 219.27,-299.33 224.55,-302.39 229.76,-305.09"/>
<polygon fill="#000000" fill-opacity="0.200000" stroke="#000000" stroke-width="2" stroke-opacity="0.200000" points="229.06,-307.08 235.37,-307.86 230.93,-303.32 229.06,-307.08"/>
</g>
<!-- src/view/pages/HighlightLive -->
<!-- src/view/pages/HighlightLive&#45;&gt;src/domain/ServiceInterfaces -->
<g id="edge22" class="edge">
<title>src/view/pages/HighlightLive&#45;&gt;src/domain/ServiceInterfaces</title>
<path fill="none" stroke="#000000" stroke-width="2" stroke-opacity="0.200000" d="M42.74,-303.55C42.35,-315.4 40.43,-391.84 56.6,-406 71.06,-418.67 387.9,-416.38 402.6,-404 448.28,-365.54 459.33,-167.43 461.59,-110.39"/>
<polygon fill="#000000" fill-opacity="0.200000" stroke="#000000" stroke-width="2" stroke-opacity="0.200000" points="463.69,-110.22 461.82,-104.15 459.5,-110.07 463.69,-110.22"/>
</g>
<!-- src/view/pages/HighlightLive&#45;&gt;src/view/common -->
<g id="edge23" class="edge">
<title>src/view/pages/HighlightLive&#45;&gt;src/view/common</title>
<path fill="none" stroke="#000000" stroke-width="2" stroke-opacity="0.200000" d="M43.42,-302.86C45.18,-305.19 50.43,-311.64 56.6,-314 112.41,-335.35 183.47,-329.48 224.42,-323.26"/>
<polygon fill="#000000" fill-opacity="0.200000" stroke="#000000" stroke-width="2" stroke-opacity="0.200000" points="224.89,-325.31 230.49,-322.3 224.23,-321.16 224.89,-325.31"/>
</g>
<!-- src/view/pages/HighlightLive&#45;&gt;src/view/pages -->
<g id="edge24" class="edge">
<title>src/view/pages/HighlightLive&#45;&gt;src/view/pages</title>
<path fill="none" stroke="#000000" stroke-width="2" stroke-opacity="0.200000" d="M43.3,-300.73C44.75,-297.27 49.29,-287.69 56.6,-284 92.76,-265.76 144.06,-275.63 162.59,-280.14"/>
<polygon fill="#000000" fill-opacity="0.200000" stroke="#000000" stroke-width="2" stroke-opacity="0.200000" points="162.29,-282.23 168.62,-281.72 163.35,-278.17 162.29,-282.23"/>
</g>
<!-- src/view/pages/HighlightLive/charts -->
<g id="node22" class="node">
<title>src/view/pages/HighlightLive/charts</title>
<g id="a_node22"><a xlink:href="src/view/pages/HighlightLive/charts" xlink:title="charts">
<polygon fill="#ffffcc" stroke="black" points="110.6,-308 58.6,-308 56.6,-306 56.6,-290 108.6,-290 110.6,-292 110.6,-308"/>
<polyline fill="none" stroke="black" points="108.6,-306 56.6,-306 "/>
<polyline fill="none" stroke="black" points="108.6,-306 108.6,-290 "/>
<polyline fill="none" stroke="black" points="108.6,-306 110.6,-308 "/>
<text text-anchor="middle" x="83.6" y="-296.8" font-family="Helvetica,sans-Serif" font-size="9.00">charts</text>
</a>
</g>
</g>
<!-- src/view/pages/HighlightLive&#45;&gt;src/view/pages/HighlightLive/charts -->
<g id="edge25" class="edge">
<title>src/view/pages/HighlightLive&#45;&gt;src/view/pages/HighlightLive/charts</title>
<path fill="none" stroke="#000000" stroke-width="2" stroke-opacity="0.200000" d="M43.78,-301.93C44.98,-301.84 47.18,-301.67 49.95,-301.46"/>
<polygon fill="#000000" fill-opacity="0.200000" stroke="#000000" stroke-width="2" stroke-opacity="0.200000" points="50.48,-303.53 56.3,-300.98 50.16,-299.34 50.48,-303.53"/>
</g>
<!-- src/view/pages/HighlightLive/charts&#45;&gt;src/view/common -->
<g id="edge26" class="edge">
<title>src/view/pages/HighlightLive/charts&#45;&gt;src/view/common</title>
<path fill="none" stroke="#000000" stroke-width="2" stroke-opacity="0.200000" d="M110.87,-301.73C141.18,-304.89 191.07,-310.08 224.13,-313.52"/>
<polygon fill="#000000" fill-opacity="0.200000" stroke="#000000" stroke-width="2" stroke-opacity="0.200000" points="224.32,-315.65 230.51,-314.18 224.76,-311.47 224.32,-315.65"/>
</g>
<!-- src/view/pages/HighlightLive/charts&#45;&gt;src/view/pages -->
<g id="edge27" class="edge">
<title>src/view/pages/HighlightLive/charts&#45;&gt;src/view/pages</title>
<path fill="none" stroke="#000000" stroke-width="2" stroke-opacity="0.200000" d="M110.7,-291.66C115.94,-290.33 121.43,-289.03 126.6,-288 139.15,-285.49 153.96,-283.67 162.52,-282.73"/>
<polygon fill="#000000" fill-opacity="0.200000" stroke="#000000" stroke-width="2" stroke-opacity="0.200000" points="162.78,-284.81 168.53,-282.1 162.34,-280.64 162.78,-284.81"/>
</g>
</g>
</svg>
