<?xml version="1.0" encoding="UTF-8" standalone="no"?>
<svg
   xmlns:dc="http://purl.org/dc/elements/1.1/"
   xmlns:cc="http://creativecommons.org/ns#"
   xmlns:rdf="http://www.w3.org/1999/02/22-rdf-syntax-ns#"
   xmlns:svg="http://www.w3.org/2000/svg"
   xmlns="http://www.w3.org/2000/svg"
   xmlns:sodipodi="http://sodipodi.sourceforge.net/DTD/sodipodi-0.dtd"
   xmlns:inkscape="http://www.inkscape.org/namespaces/inkscape"
   width="1024"
   height="1024"
   viewBox="0 0 270.93333 270.93334"
   version="1.1"
   id="svg8"
   sodipodi:docname="captureWord.svg"
   inkscape:version="1.0.2 (e86c8708, 2021-01-15)">
  <defs
     id="defs2" />
  <sodipodi:namedview
     id="base"
     pagecolor="#ffffff"
     bordercolor="#666666"
     borderopacity="1.0"
     inkscape:pageopacity="0.0"
     inkscape:pageshadow="2"
     inkscape:zoom="0.47850697"
     inkscape:cx="917.04713"
     inkscape:cy="528.56347"
     inkscape:document-units="mm"
     inkscape:current-layer="layer1"
     inkscape:document-rotation="0"
     showgrid="false"
     units="px"
     inkscape:window-width="1440"
     inkscape:window-height="762"
     inkscape:window-x="0"
     inkscape:window-y="25"
     inkscape:window-maximized="0" />
  <metadata
     id="metadata5">
    <rdf:RDF>
      <cc:Work
         rdf:about="">
        <dc:format>image/svg+xml</dc:format>
        <dc:type
           rdf:resource="http://purl.org/dc/dcmitype/StillImage" />
        <dc:title></dc:title>
      </cc:Work>
    </rdf:RDF>
  </metadata>
  <g
     inkscape:label="Layer 1"
     inkscape:groupmode="layer"
     id="layer1">
    <path
       id="rect182"
       style="fill:#000000;stroke-width:0.987969"
       d="M 125 0 A 125 125 0 0 0 0 125 L 0 325 L 0 762 L 900 762 L 900 774.00391 A 125 125 0 0 0 899 774 A 125 125 0 0 0 774 899 A 125 125 0 0 0 899 1024 A 125 125 0 0 0 1024 899 A 125 125 0 0 0 1023.9336 895 L 1025 895 L 1025 695 L 1024 695 L 1024 262 L 125 262 L 125 250 A 125 125 0 0 0 250 125 A 125 125 0 0 0 125 0 z M 637.13672 384 C 647.33637 384 656.50456 384.59744 664.64258 385.79102 C 672.8891 386.87608 680.48525 388.34093 687.42969 390.18555 C 694.69965 392.24718 701.26368 394.57943 707.12305 397.18359 C 713.09093 399.67925 718.29926 402.01346 722.74805 404.18359 L 722.74805 462.93945 L 715.58594 462.93945 C 712.54774 460.33529 708.69705 457.24284 704.03125 453.66211 C 699.47396 450.08138 694.26562 446.55425 688.40625 443.08203 C 682.43837 439.60981 675.98155 436.68012 669.03711 434.29297 C 662.09267 431.90582 654.65928 430.71289 646.73828 430.71289 C 637.94922 430.71289 629.59483 432.12413 621.67383 434.94531 C 613.75283 437.65798 606.4286 442.21528 599.70117 448.61719 C 593.29927 454.80208 588.09093 462.99371 584.07617 473.19336 C 580.16992 483.39301 578.2168 495.76281 578.2168 510.30273 C 578.2168 525.4937 580.33268 538.18902 584.56445 548.38867 C 588.90473 558.58832 594.32943 566.61719 600.83984 572.47656 C 607.45876 578.44444 614.83855 582.73177 622.97656 585.33594 C 631.11458 587.8316 639.14345 589.07812 647.06445 589.07812 C 654.65994 589.07812 662.14692 587.9388 669.52539 585.66016 C 677.01237 583.38151 683.90191 580.28906 690.19531 576.38281 C 695.51215 573.23611 700.45052 569.8737 705.00781 566.29297 C 709.5651 562.71224 713.3086 559.61979 716.23828 557.01562 L 722.74805 557.01562 L 722.74805 614.95703 C 716.67166 617.6697 710.86588 620.22027 705.33203 622.60742 C 699.79818 624.99457 693.99435 627.05686 687.91797 628.79297 C 679.99697 631.07161 672.56358 632.80642 665.61914 634 C 658.6747 635.19358 649.12543 635.79102 636.97266 635.79102 C 618.96051 635.79102 602.30533 633.13324 587.00586 627.81641 C 571.8149 622.49957 558.74045 614.5779 547.78125 604.05273 C 536.82205 593.52757 528.30295 580.39756 522.22656 564.66406 C 516.25868 548.93056 513.27539 530.75693 513.27539 510.14062 C 513.27539 490.93492 516.15148 473.51952 521.90234 457.89453 C 527.65321 442.26954 536.0076 428.86762 546.9668 417.69141 C 557.49196 406.94922 570.51281 398.64843 586.0293 392.78906 C 601.65429 386.92969 618.69055 384 637.13672 384 z M 68.451172 388.7207 L 156.3418 388.7207 C 176.09005 388.7207 193.12631 390.40192 207.44922 393.76562 C 221.77213 397.02083 233.81641 401.68729 243.58203 407.76367 C 260.29209 417.96332 273.4221 431.74437 282.9707 449.10547 C 292.62782 466.35806 297.45508 486.70315 297.45508 510.14062 C 297.45508 532.71006 292.30229 552.94597 281.99414 570.84961 C 271.68599 588.64474 258.66514 602.31663 242.93164 611.86523 C 231.10439 619.02669 218.13715 624.01866 204.03125 626.83984 C 189.92535 629.66102 173.21462 631.07031 153.90039 631.07031 L 68.451172 631.07031 L 68.451172 388.7207 z M 334.23828 388.7207 L 476.16602 388.7207 L 476.16602 431.68945 L 436.45312 431.68945 L 436.45312 588.10156 L 476.16602 588.10156 L 476.16602 631.07031 L 334.23828 631.07031 L 334.23828 588.10156 L 373.95312 588.10156 L 373.95312 431.68945 L 334.23828 431.68945 L 334.23828 388.7207 z M 744.7207 388.7207 L 958.58789 388.7207 L 958.58789 435.5957 L 882.9043 435.5957 L 882.9043 631.07031 L 820.4043 631.07031 L 820.4043 435.5957 L 744.7207 435.5957 L 744.7207 388.7207 z M 130.95117 433.96875 L 130.95117 585.66016 L 146.74023 585.66016 C 161.60568 585.66016 172.51064 585.00911 179.45508 583.70703 C 186.39952 582.29644 193.17991 579.80143 199.79883 576.2207 C 211.19205 569.71029 219.5484 561.03038 224.86523 550.17969 C 230.18207 539.22049 232.83984 525.71136 232.83984 509.65234 C 232.83984 493.70183 229.91015 480.08354 224.05078 468.79883 C 218.29992 457.40561 209.13172 448.50738 196.54492 442.10547 C 190.14302 438.95877 183.57704 436.84288 176.84961 435.75781 C 170.23069 434.56424 160.19509 433.96875 146.74023 433.96875 L 130.95117 433.96875 z "
       transform="scale(0.26458333)" />
    <text
       xml:space="preserve"
       style="font-style:normal;font-weight:normal;font-size:10.5833px;line-height:1.25;font-family:sans-serif;fill:#000000;fill-opacity:1;stroke:none;stroke-width:0.264583"
       x="-65.799286"
       y="90.618866"
       id="text180"><tspan
         sodipodi:role="line"
         id="tspan178"
         x="-65.799286"
         y="90.618866"
         style="stroke-width:0.264583"></tspan></text>
  </g>
</svg>
