<?xml version="1.0" encoding="UTF-8" standalone="no"?>
<svg
   xmlns:dc="http://purl.org/dc/elements/1.1/"
   xmlns:cc="http://creativecommons.org/ns#"
   xmlns:rdf="http://www.w3.org/1999/02/22-rdf-syntax-ns#"
   xmlns:svg="http://www.w3.org/2000/svg"
   xmlns="http://www.w3.org/2000/svg"
   xmlns:sodipodi="http://sodipodi.sourceforge.net/DTD/sodipodi-0.dtd"
   xmlns:inkscape="http://www.inkscape.org/namespaces/inkscape"
   width="1024"
   height="1024"
   viewBox="0 0 270.93333 270.93334"
   version="1.1"
   id="svg288"
   inkscape:version="1.0.2 (e86c8708, 2021-01-15)"
   sodipodi:docname="screenshot.svg">
  <defs
     id="defs282" />
  <sodipodi:namedview
     id="base"
     pagecolor="#ffffff"
     bordercolor="#666666"
     borderopacity="1.0"
     inkscape:pageopacity="0.0"
     inkscape:pageshadow="2"
     inkscape:zoom="0.41561168"
     inkscape:cx="1055.9165"
     inkscape:cy="551.23611"
     inkscape:document-units="px"
     inkscape:current-layer="layer1"
     inkscape:document-rotation="0"
     showgrid="false"
     units="px"
     inkscape:window-width="1440"
     inkscape:window-height="762"
     inkscape:window-x="0"
     inkscape:window-y="25"
     inkscape:window-maximized="0" />
  <metadata
     id="metadata285">
    <rdf:RDF>
      <cc:Work
         rdf:about="">
        <dc:format>image/svg+xml</dc:format>
        <dc:type
           rdf:resource="http://purl.org/dc/dcmitype/StillImage" />
        <dc:title></dc:title>
      </cc:Work>
    </rdf:RDF>
  </metadata>
  <g
     inkscape:label="Layer 1"
     inkscape:groupmode="layer"
     id="layer1">
    <path
       id="rect642"
       style="fill:#000000;stroke-width:1.01046"
       d="M 179.85547 0 A 30 30 0 0 0 150 30 A 30 30 0 0 0 150 30.144531 L 150 150 L 30 150 A 30 30 0 0 0 0 180 A 30 30 0 0 0 30 210 L 150 210 L 150 874 L 814 874 L 814 994 A 30 30 0 0 0 844 1024 A 30 30 0 0 0 874 994 A 30 30 0 0 0 874 993.85547 L 874 874 L 994 874 A 30 30 0 0 0 1024 844 A 30 30 0 0 0 994 814 L 993.85547 814 L 874 814 L 874 150 L 210 150 L 210 30 A 30 30 0 0 0 180 0 A 30 30 0 0 0 179.85547 0 z M 210 210 L 814 210 L 814 814 L 210 814 L 210 210 z "
       transform="scale(0.26458333)" />
  </g>
</svg>
